<svg width="490.75" height="115.8786521623408" viewBox="0 0 369.89473684210526 87.34162719756883" class="looka-1j8o68f"><defs id="SvgjsDefs1266"></defs><g id="SvgjsG1267" featurekey="v37d4h-0" transform="matrix(3.1760521216993207,0,0,3.1760521216993207,-4.764828218699566,-7.939161050060772)" fill="#f6f6f6"><g xmlns="http://www.w3.org/2000/svg" transform="translate(0,-1020.3622)"><path style="opacity:1;fill:#f6f6f6;fill-opacity:1;stroke:none;stroke-width:1;stroke-linecap:round;stroke-linejoin:round;stroke-miterlimit:4;stroke-dasharray:none;stroke-dashoffset:0;stroke-opacity:1" d="m 15.398901,1026.8547 a 9.5041419,9.4994443 89.995734 0 0 -4.524708,1.2713 9.5041419,9.4994443 89.995734 0 0 -4.0521803,11.7667 c -0.5800113,-0.2016 -1.04654,-0.4427 -1.3337961,-0.7148 -0.3277499,-0.3107 -0.470528,-0.623 -0.4823263,-0.9941 -0.011999,-0.3712 0.1251809,-0.8288 0.4902251,-1.3631 a 0.49997358,0.50000878 0 0 0 -0.5644137,-0.7617 0.49997358,0.50000878 0 0 0 -0.2636597,0.1993 c -0.4489314,0.6568 -0.6842954,1.3165 -0.6638986,1.9568 0.019997,0.6405 0.314452,1.2323 0.7967783,1.6893 0.9644525,0.9138 2.6207993,1.3934 4.8488587,1.4823 4.4559186,0.1777 10.1410496,-1.3262 13.9704646,-3.6931 1.914707,-1.1836 3.147818,-2.4232 3.571754,-3.695 0.212067,-0.6358 0.19717,-1.2992 -0.07999,-1.8748 -0.277857,-0.5755 -0.793879,-1.0422 -1.493871,-1.3984 a 0.49997358,0.50000878 0 1 0 -0.453132,0.8906 c 0.562415,0.2862 0.887865,0.6141 1.04674,0.9433 0.158776,0.3291 0.176774,0.6802 0.029,1.121 -0.160975,0.4829 -0.569713,1.0534 -1.183419,1.6522 a 9.5041419,9.4994443 89.995734 0 0 -1.206815,-3.7282 9.5041419,9.4994443 89.995734 0 0 -8.451809,-4.7496 z m 1.361092,3.3572 a 0.87486627,0.87492787 0 0 1 0.874866,0.8749 0.87486627,0.87492787 0 0 1 -0.874866,0.8749 0.87486627,0.87492787 0 0 1 -0.874866,-0.8749 0.87486627,0.87492787 0 0 1 0.874866,-0.8749 z m -7.1239105,4.4996 a 0.99984716,0.99991757 0 0 1 0.9998475,0.9999 0.99984716,0.99991757 0 0 1 -0.9998475,0.9999 0.99984716,0.99991757 0 0 1 -0.9998471,-0.9999 0.99984716,0.99991757 0 0 1 0.9998471,-0.9999 z m 8.1237585,0.9999 a 1.3747899,1.3748867 0 0 1 1.374789,1.3749 1.3747899,1.3748867 0 0 1 -1.374789,1.3749 1.3747899,1.3748867 0 0 1 -1.37479,-1.3749 1.3747899,1.3748867 0 0 1 1.37479,-1.3749 z"></path><path style="opacity:1;fill:#f6f6f6;fill-opacity:1;stroke:none;stroke-width:1;stroke-linecap:round;stroke-linejoin:round;stroke-miterlimit:4;stroke-dasharray:none;stroke-dashoffset:0;stroke-opacity:1" d="m 25.02043,1037.7541 c -0.383941,0.2953 -0.805977,0.5882 -1.273205,0.877 -3.829414,2.3669 -9.516445,3.8707 -13.9724637,3.6931 -0.5970087,-0.024 -1.1452249,-0.081 -1.6579465,-0.1622 a 9.5041419,9.4994443 89.995734 0 0 12.2559262,2.4256 9.5041419,9.4994443 89.995734 0 0 4.647689,-6.8335 z"></path><path style="color:;font-style:normal;font-variant:normal;font-weight:normal;font-stretch:normal;font-size:medium;line-height:normal;font-family:sans-serif;text-indent:0;text-align:start;text-decoration:none;text-decoration-line:none;text-decoration-style:solid;text-decoration-color:;letter-spacing:normal;word-spacing:normal;text-transform:none;direction:ltr;writing-mode:lr-tb;baseline-shift:baseline;text-anchor:start;white-space:normal;clip-rule:nonzero;display:inline;overflow:visible;visibility:visible;opacity:1;isolation:auto;mix-blend-mode:normal;color-interpolation:sRGB;color-interpolation-filters:linearRGB;solid-color:;solid-opacity:1;fill:#f6f6f6;fill-opacity:1;fill-rule:evenodd;stroke:none;stroke-width:1.00000012;stroke-linecap:round;stroke-linejoin:round;stroke-miterlimit:4;stroke-dasharray:none;stroke-dashoffset:0;stroke-opacity:1;color-rendering:auto;image-rendering:auto;shape-rendering:auto;text-rendering:auto;enable-background:accumulate" d="m 2.0024494,1033.3611 a 0.49997364,0.50000884 0 0 0 -0.3475468,0.8573 l 1.4899722,1.4901 a 0.49997364,0.50000884 0 1 0 0.7068919,-0.7069 l -1.4899722,-1.4901 a 0.49997364,0.50000884 0 0 0 -0.3593451,-0.1504 z"></path><path style="color:;font-style:normal;font-variant:normal;font-weight:normal;font-stretch:normal;font-size:medium;line-height:normal;font-family:sans-serif;text-indent:0;text-align:start;text-decoration:none;text-decoration-line:none;text-decoration-style:solid;text-decoration-color:;letter-spacing:normal;word-spacing:normal;text-transform:none;direction:ltr;writing-mode:lr-tb;baseline-shift:baseline;text-anchor:start;white-space:normal;clip-rule:nonzero;display:inline;overflow:visible;visibility:visible;opacity:1;isolation:auto;mix-blend-mode:normal;color-interpolation:sRGB;color-interpolation-filters:linearRGB;solid-color:;solid-opacity:1;fill:#f6f6f6;fill-opacity:1;fill-rule:evenodd;stroke:none;stroke-width:1.00000012;stroke-linecap:round;stroke-linejoin:round;stroke-miterlimit:4;stroke-dasharray:none;stroke-dashoffset:0;stroke-opacity:1;color-rendering:auto;image-rendering:auto;shape-rendering:auto;text-rendering:auto;enable-background:accumulate" d="m 3.4885223,1033.3611 a 0.49997364,0.50000884 0 0 0 -0.3436475,0.1504 l -1.4899722,1.4901 a 0.49997364,0.50000884 0 1 0 0.7068919,0.7069 l 1.4899722,-1.4901 a 0.49997364,0.50000884 0 0 0 -0.3632444,-0.8573 z"></path><path style="color:;font-style:normal;font-variant:normal;font-weight:normal;font-stretch:normal;font-size:medium;line-height:normal;font-family:sans-serif;text-indent:0;text-align:start;text-decoration:none;text-decoration-line:none;text-decoration-style:solid;text-decoration-color:;letter-spacing:normal;word-spacing:normal;text-transform:none;direction:ltr;writing-mode:lr-tb;baseline-shift:baseline;text-anchor:start;white-space:normal;clip-rule:nonzero;display:inline;overflow:visible;visibility:visible;opacity:1;isolation:auto;mix-blend-mode:normal;color-interpolation:sRGB;color-interpolation-filters:linearRGB;solid-color:;solid-opacity:1;fill:#f6f6f6;fill-opacity:1;fill-rule:evenodd;stroke:none;stroke-width:0.9999997;stroke-linecap:round;stroke-linejoin:round;stroke-miterlimit:4;stroke-dasharray:none;stroke-dashoffset:0;stroke-opacity:1;color-rendering:auto;image-rendering:auto;shape-rendering:auto;text-rendering:auto;enable-background:accumulate" d="m 10.495351,1047.3599 a 0.49997343,0.50000863 0 0 0 -0.492125,0.5059 l 0,1.9861 a 0.49997343,0.50000863 0 1 0 0.999847,0 l 0,-1.9861 a 0.49997343,0.50000863 0 0 0 -0.507722,-0.5059 z"></path><path style="color:;font-style:normal;font-variant:normal;font-weight:normal;font-stretch:normal;font-size:medium;line-height:normal;font-family:sans-serif;text-indent:0;text-align:start;text-decoration:none;text-decoration-line:none;text-decoration-style:solid;text-decoration-color:;letter-spacing:normal;word-spacing:normal;text-transform:none;direction:ltr;writing-mode:lr-tb;baseline-shift:baseline;text-anchor:start;white-space:normal;clip-rule:nonzero;display:inline;overflow:visible;visibility:visible;opacity:1;isolation:auto;mix-blend-mode:normal;color-interpolation:sRGB;color-interpolation-filters:linearRGB;solid-color:;solid-opacity:1;fill:#f6f6f6;fill-opacity:1;fill-rule:evenodd;stroke:none;stroke-width:0.9999997;stroke-linecap:round;stroke-linejoin:round;stroke-miterlimit:4;stroke-dasharray:none;stroke-dashoffset:0;stroke-opacity:1;color-rendering:auto;image-rendering:auto;shape-rendering:auto;text-rendering:auto;enable-background:accumulate" d="m 9.5091019,1048.3599 a 0.49997343,0.50000863 0 1 0 0,0.9999 l 1.9860961,0 a 0.49997343,0.50000863 0 1 0 0,-0.9999 z"></path><path style="color:;font-style:normal;font-variant:normal;font-weight:normal;font-stretch:normal;font-size:medium;line-height:normal;font-family:sans-serif;text-indent:0;text-align:start;text-decoration:none;text-decoration-line:none;text-decoration-style:solid;text-decoration-color:;letter-spacing:normal;word-spacing:normal;text-transform:none;direction:ltr;writing-mode:lr-tb;baseline-shift:baseline;text-anchor:start;white-space:normal;clip-rule:nonzero;display:inline;overflow:visible;visibility:visible;opacity:1;isolation:auto;mix-blend-mode:normal;color-interpolation:sRGB;color-interpolation-filters:linearRGB;solid-color:;solid-opacity:1;fill:#f6f6f6;fill-opacity:1;fill-rule:evenodd;stroke:none;stroke-width:1.00000012;stroke-linecap:round;stroke-linejoin:round;stroke-miterlimit:4;stroke-dasharray:none;stroke-dashoffset:0;stroke-opacity:1;color-rendering:auto;image-rendering:auto;shape-rendering:auto;text-rendering:auto;enable-background:accumulate" d="m 23.001239,1047.8599 a 0.49997364,0.50000884 0 0 0 -0.349546,0.8573 l 1.489972,1.4901 a 0.49997364,0.50000884 0 1 0 0.706891,-0.7069 l -1.489972,-1.4901 a 0.49997364,0.50000884 0 0 0 -0.357345,-0.1504 z"></path><path style="color:;font-style:normal;font-variant:normal;font-weight:normal;font-stretch:normal;font-size:medium;line-height:normal;font-family:sans-serif;text-indent:0;text-align:start;text-decoration:none;text-decoration-line:none;text-decoration-style:solid;text-decoration-color:;letter-spacing:normal;word-spacing:normal;text-transform:none;direction:ltr;writing-mode:lr-tb;baseline-shift:baseline;text-anchor:start;white-space:normal;clip-rule:nonzero;display:inline;overflow:visible;visibility:visible;opacity:1;isolation:auto;mix-blend-mode:normal;color-interpolation:sRGB;color-interpolation-filters:linearRGB;solid-color:;solid-opacity:1;fill:#f6f6f6;fill-opacity:1;fill-rule:evenodd;stroke:none;stroke-width:1.00000012;stroke-linecap:round;stroke-linejoin:round;stroke-miterlimit:4;stroke-dasharray:none;stroke-dashoffset:0;stroke-opacity:1;color-rendering:auto;image-rendering:auto;shape-rendering:auto;text-rendering:auto;enable-background:accumulate" d="m 24.485313,1047.8599 a 0.49997364,0.50000884 0 0 0 -0.343648,0.1504 l -1.489972,1.4901 a 0.49997364,0.50000884 0 1 0 0.706891,0.7069 l 1.489972,-1.4901 a 0.49997364,0.50000884 0 0 0 -0.363243,-0.8573 z"></path><path style="color:;font-style:normal;font-variant:normal;font-weight:normal;font-stretch:normal;font-size:medium;line-height:normal;font-family:sans-serif;text-indent:0;text-align:start;text-decoration:none;text-decoration-line:none;text-decoration-style:solid;text-decoration-color:;letter-spacing:normal;word-spacing:normal;text-transform:none;direction:ltr;writing-mode:lr-tb;baseline-shift:baseline;text-anchor:start;white-space:normal;clip-rule:nonzero;display:inline;overflow:visible;visibility:visible;opacity:1;isolation:auto;mix-blend-mode:normal;color-interpolation:sRGB;color-interpolation-filters:linearRGB;solid-color:;solid-opacity:1;fill:#f6f6f6;fill-opacity:1;fill-rule:evenodd;stroke:none;stroke-width:0.9999997;stroke-linecap:round;stroke-linejoin:round;stroke-miterlimit:4;stroke-dasharray:none;stroke-dashoffset:0;stroke-opacity:1;color-rendering:auto;image-rendering:auto;shape-rendering:auto;text-rendering:auto;enable-background:accumulate" d="m 21.993594,1022.862 a 0.49997343,0.50000863 0 0 0 -0.492125,0.5058 l 0,1.9862 a 0.49997343,0.50000863 0 1 0 0.999846,0 l 0,-1.9862 a 0.49997343,0.50000863 0 0 0 -0.507721,-0.5058 z"></path><path style="color:;font-style:normal;font-variant:normal;font-weight:normal;font-stretch:normal;font-size:medium;line-height:normal;font-family:sans-serif;text-indent:0;text-align:start;text-decoration:none;text-decoration-line:none;text-decoration-style:solid;text-decoration-color:;letter-spacing:normal;word-spacing:normal;text-transform:none;direction:ltr;writing-mode:lr-tb;baseline-shift:baseline;text-anchor:start;white-space:normal;clip-rule:nonzero;display:inline;overflow:visible;visibility:visible;opacity:1;isolation:auto;mix-blend-mode:normal;color-interpolation:sRGB;color-interpolation-filters:linearRGB;solid-color:;solid-opacity:1;fill:#f6f6f6;fill-opacity:1;fill-rule:evenodd;stroke:none;stroke-width:0.9999997;stroke-linecap:round;stroke-linejoin:round;stroke-miterlimit:4;stroke-dasharray:none;stroke-dashoffset:0;stroke-opacity:1;color-rendering:auto;image-rendering:auto;shape-rendering:auto;text-rendering:auto;enable-background:accumulate" d="m 21.007344,1023.8619 a 0.49997343,0.50000863 0 1 0 0,0.9999 l 1.986097,0 a 0.49997343,0.50000863 0 1 0 0,-0.9999 z"></path><path style="color:;font-style:normal;font-variant:normal;font-weight:normal;font-stretch:normal;font-size:medium;line-height:normal;font-family:sans-serif;text-indent:0;text-align:start;text-decoration:none;text-decoration-line:none;text-decoration-style:solid;text-decoration-color:;letter-spacing:normal;word-spacing:normal;text-transform:none;direction:ltr;writing-mode:lr-tb;baseline-shift:baseline;text-anchor:start;white-space:normal;clip-rule:nonzero;display:inline;overflow:visible;visibility:visible;opacity:1;isolation:auto;mix-blend-mode:normal;color-interpolation:sRGB;color-interpolation-filters:linearRGB;solid-color:;solid-opacity:1;fill:#f6f6f6;fill-opacity:1;fill-rule:evenodd;stroke:none;stroke-width:1.00000012;stroke-linecap:round;stroke-linejoin:round;stroke-miterlimit:4;stroke-dasharray:none;stroke-dashoffset:0;stroke-opacity:1;color-rendering:auto;image-rendering:auto;shape-rendering:auto;text-rendering:auto;enable-background:accumulate" d="m 8.0015324,1022.862 a 0.49997364,0.50000884 0 0 0 -0.3475469,0.8573 l 1.4899722,1.4901 a 0.49997364,0.50000884 0 1 0 0.7068921,-0.707 l -1.4899724,-1.49 a 0.49997364,0.50000884 0 0 0 -0.359345,-0.1504 z"></path><path style="color:;font-style:normal;font-variant:normal;font-weight:normal;font-stretch:normal;font-size:medium;line-height:normal;font-family:sans-serif;text-indent:0;text-align:start;text-decoration:none;text-decoration-line:none;text-decoration-style:solid;text-decoration-color:;letter-spacing:normal;word-spacing:normal;text-transform:none;direction:ltr;writing-mode:lr-tb;baseline-shift:baseline;text-anchor:start;white-space:normal;clip-rule:nonzero;display:inline;overflow:visible;visibility:visible;opacity:1;isolation:auto;mix-blend-mode:normal;color-interpolation:sRGB;color-interpolation-filters:linearRGB;solid-color:;solid-opacity:1;fill:#f6f6f6;fill-opacity:1;fill-rule:evenodd;stroke:none;stroke-width:1.00000012;stroke-linecap:round;stroke-linejoin:round;stroke-miterlimit:4;stroke-dasharray:none;stroke-dashoffset:0;stroke-opacity:1;color-rendering:auto;image-rendering:auto;shape-rendering:auto;text-rendering:auto;enable-background:accumulate" d="m 9.4876052,1022.862 a 0.49997364,0.50000884 0 0 0 -0.3436475,0.1504 l -1.4899722,1.49 a 0.49997364,0.50000884 0 1 0 0.7068919,0.707 l 1.4899724,-1.4901 a 0.49997364,0.50000884 0 0 0 -0.3632446,-0.8573 z"></path><path style="color:;font-style:normal;font-variant:normal;font-weight:normal;font-stretch:normal;font-size:medium;line-height:normal;font-family:sans-serif;text-indent:0;text-align:start;text-decoration:none;text-decoration-line:none;text-decoration-style:solid;text-decoration-color:;letter-spacing:normal;word-spacing:normal;text-transform:none;direction:ltr;writing-mode:lr-tb;baseline-shift:baseline;text-anchor:start;white-space:normal;clip-rule:nonzero;display:inline;overflow:visible;visibility:visible;opacity:1;isolation:auto;mix-blend-mode:normal;color-interpolation:sRGB;color-interpolation-filters:linearRGB;solid-color:;solid-opacity:1;fill:#f6f6f6;fill-opacity:1;fill-rule:evenodd;stroke:none;stroke-width:0.9999997;stroke-linecap:round;stroke-linejoin:round;stroke-miterlimit:4;stroke-dasharray:none;stroke-dashoffset:0;stroke-opacity:1;color-rendering:auto;image-rendering:auto;shape-rendering:auto;text-rendering:auto;enable-background:accumulate" d="m 28.992524,1036.8608 a 0.49997343,0.50000863 0 0 0 -0.492126,0.5059 l 0,1.9861 a 0.49997343,0.50000863 0 1 0 0.999848,0 l 0,-1.9861 a 0.49997343,0.50000863 0 0 0 -0.507722,-0.5059 z"></path><path style="color:;font-style:normal;font-variant:normal;font-weight:normal;font-stretch:normal;font-size:medium;line-height:normal;font-family:sans-serif;text-indent:0;text-align:start;text-decoration:none;text-decoration-line:none;text-decoration-style:solid;text-decoration-color:;letter-spacing:normal;word-spacing:normal;text-transform:none;direction:ltr;writing-mode:lr-tb;baseline-shift:baseline;text-anchor:start;white-space:normal;clip-rule:nonzero;display:inline;overflow:visible;visibility:visible;opacity:1;isolation:auto;mix-blend-mode:normal;color-interpolation:sRGB;color-interpolation-filters:linearRGB;solid-color:;solid-opacity:1;fill:#f6f6f6;fill-opacity:1;fill-rule:evenodd;stroke:none;stroke-width:0.9999997;stroke-linecap:round;stroke-linejoin:round;stroke-miterlimit:4;stroke-dasharray:none;stroke-dashoffset:0;stroke-opacity:1;color-rendering:auto;image-rendering:auto;shape-rendering:auto;text-rendering:auto;enable-background:accumulate" d="m 28.006274,1037.8607 a 0.49997343,0.50000863 0 1 0 0,0.9999 l 1.986096,0 a 0.49997343,0.50000863 0 1 0 0,-0.9999 z"></path></g></g><g id="SvgjsG1268" featurekey="UxBHKT-0" transform="matrix(3.7043195442098216,0,0,3.7043195442098216,109.77740862674555,-5.300334231696361)" fill="#f6f6f6"><path d="M0.6 20 l0 -0.54 c0.66 -0.7 1.08 -1.66 1.08 -2.62 l0 -3.7 c0 -0.78 -0.32 -1.46 -0.84 -2 l-0.22 -0.24 l0 -0.56 l3.22 0 l0 1.12 c0.64 -0.38 1.38 -0.62 2.14 -0.62 c1.08 0 1.94 0.3 2.54 1 c0.76 -0.5 1.9 -1 3 -1 c2.34 0 3.62 1.42 3.62 4.88 l0 1.12 c0 0.96 0.36 1.92 1.04 2.62 l0 0.54 l-4.26 0 l0 -0.54 c0.68 -0.7 1.06 -1.66 1.06 -2.62 l0 -2.42 c-0.02 -1.56 -1.4 -3.08 -2.8 -2.68 c-0.38 0.12 -0.9 0.46 -1.18 0.8 c0.4 0.74 0.58 1.82 0.58 3.18 l0 1.12 c0 0.96 0.42 1.92 1.06 2.62 l0 0.54 l-4.26 0 l0 -0.54 c0.68 -0.7 1.04 -1.66 1.04 -2.62 l0 -2.42 c0 -1.56 -1.38 -3.1 -2.82 -2.72 c-0.48 0.14 -0.76 0.62 -0.76 1.14 l0 4.02 c0 0.94 0.32 1.9 0.98 2.6 l0 0.54 l-4.22 0 z M25.060000000000002 20 l-0.54 -0.14 c-0.9 -0.24 -1.88 -0.24 -2.72 0.02 c-0.34 0.1 -0.66 0.12 -0.98 0.12 c-1.96 0 -3.52 -1.54 -3.52 -3.48 c0 -1.9 1.56 -3.46 3.52 -3.46 c0.78 0 1.48 0.24 2.02 0.62 l0 -0.02 s0.16 -2.44 -0.92 -2.74 c-1.12 -0.32 -1.52 0.34 -2.34 1.58 l-1.68 -0.02 c0.52 -1.32 1.54 -2.24 2.98 -2.24 c0.54 0 1.1 0.1 1.64 0.26 c0 0 2.54 0.78 2.54 3.16 l0 6.34 z M18.92 17.02 c0.46 1.5 1.6 2.56 2.76 2.3 c1.12 -0.26 1.64 -1.72 1.18 -3.28 c-0.44 -1.48 -1.74 -2.54 -2.86 -2.26 c-1.14 0.28 -1.54 1.72 -1.08 3.24 z M26.700000000000003 20 l0 -0.5 c0.68 -0.74 1.02 -1.66 1.02 -2.66 l0 -3.3 c0 -0.98 -0.34 -1.92 -1.02 -2.62 l0 -0.58 l3.22 0 l0 1.04 c0.62 -0.62 1.8 -1.1 2.62 -1.1 c0.86 0 1.46 0.32 1.46 0.32 l-0.42 1.82 s-0.9 -0.74 -2 -0.74 c-1.46 0 -1.66 0.98 -1.66 1.24 l0 3.92 c0 1 0.38 1.92 1.02 2.66 l0 0.5 l-4.24 0 z M35.080000000000005 19.18 l0 -1.42 l0.66 0 l0.78 0.84 c0.52 0.56 1.14 0.78 2.02 0.76 c0.8 0 2.02 -0.3 2.02 -1.04 c0 -0.94 -1.82 -2.08 -2.9 -2.72 c-0.94 -0.54 -2.58 -1.48 -2.58 -2.62 c0 -2.18 2.54 -2.72 3.28 -2.72 c0.94 0 1.88 0.22 2.88 0.68 l0 1.38 l-0.72 0 l-0.58 -0.66 c-0.42 -0.48 -1.02 -0.8 -1.68 -0.78 c-0.6 0 -1.72 0.46 -1.72 1.16 c0 0.82 1.94 1.44 3.96 2.82 c1.22 0.82 1.78 1.84 1.78 2.76 c0 1.32 -1.12 2.44 -3.04 2.44 c-2.5 0 -4.16 -0.88 -4.16 -0.88 z M48.68 20 l0 -0.58 c0.66 -0.68 1.06 -1.62 1.06 -2.6 l0 -3.3 c0 -0.96 -0.36 -1.9 -1.04 -2.6 l0 -0.58 l2.72 0 c-0.16 -2.68 -2.84 -3.26 -4.34 -3.26 l-0.9 0 c0.2 0.26 0.32 0.58 0.32 0.92 c0 0.76 -0.62 1.36 -1.4 1.36 c-0.76 0 -1.4 -0.6 -1.4 -1.36 c0 -0.78 0.64 -1.44 1.4 -1.44 l1.54 0 c0.9 0 1.94 0.16 2.62 0.42 c1.2 0.46 2.66 1.54 2.66 3.36 l0 1.1 c0.62 -0.38 1.38 -0.62 2.16 -0.62 c2.32 0 3.62 1.46 3.62 4.88 l0 1.14 c0 0.96 0.38 1.9 1.02 2.58 l0 0.58 l-4.26 0 l0 -0.58 c0.68 -0.68 1.04 -1.62 1.04 -2.58 l0 -2.4 c0 -1.42 -1.1 -2.8 -2.34 -2.8 c-0.64 0 -1.24 0.44 -1.24 1.16 l0 4.04 c0 0.96 0.36 1.9 1.04 2.58 l0 0.58 l-4.28 0 z M43.56 20 l0 -0.58 c0.58 -0.68 0.92 -1.62 0.92 -2.58 l0 -3.32 c0 -0.96 -0.34 -1.9 -0.92 -2.62 l0 -0.56 l2.8 0 l0 6.5 c0 0.96 0.3 1.9 0.88 2.58 l0 0.58 l-3.68 0 z M59.68 15.219999999999999 c0 -3.02 2.44 -4.96 5.22 -4.96 c2.82 0 5.32 1.88 5.32 4.96 c0 3.1 -2.5 4.96 -5.32 4.96 c-2.78 0 -5.22 -1.92 -5.22 -4.96 z M62.24 15.879999999999999 c0.68 2.32 2.34 3.94 3.96 3.56 c1.58 -0.38 2.32 -2.54 1.6 -4.88 c-0.68 -2.28 -2.5 -3.86 -4.14 -3.5 c-1.58 0.36 -2.12 2.48 -1.42 4.82 z"></path></g></svg>